<?xml version="1.0" encoding="UTF-8"?>
<svg xmlns="http://www.w3.org/2000/svg" xmlns:xlink="http://www.w3.org/1999/xlink" width="100px" height="100px" viewBox="0 0 100 100" version="1.1">
<g id="surface1">
<path style=" stroke:none;fill-rule:nonzero;fill:rgb(0%,0%,0%);fill-opacity:1;" d="M 41.980469 30.140625 L 42.359375 30.898438 L 41.28125 32.5 L 42.121094 37.398438 L 42.960938 42.300781 L 42.980469 35.839844 L 43 29.398438 L 41.601562 29.398438 Z M 41.980469 30.140625 "/>
<path style=" stroke:none;fill-rule:nonzero;fill:rgb(0%,0%,0%);fill-opacity:1;" d="M 38.761719 30.28125 C 38.339844 30.78125 37.441406 31.300781 35.160156 32.300781 C 33.480469 33.039062 32.019531 33.71875 31.941406 33.800781 C 31.800781 33.921875 31.558594 36.179688 30.71875 45.699219 C 30.539062 47.558594 30.28125 51.398438 30.101562 54.199219 C 29.941406 57 29.761719 60 29.699219 60.839844 L 29.578125 62.398438 L 31.078125 62.398438 C 31.921875 62.398438 32.601562 62.339844 32.601562 62.261719 C 32.601562 62.039062 34.621094 47.300781 34.679688 47.121094 C 34.699219 47 35.019531 47.359375 35.378906 47.878906 L 36.039062 48.839844 L 35.300781 53.179688 C 34.878906 55.558594 34.339844 58.578125 34.101562 59.898438 C 33.78125 61.660156 33.71875 62.359375 33.878906 62.519531 C 34.160156 62.820312 40.039062 66.238281 40.101562 66.160156 C 40.140625 66.121094 40.800781 64.578125 41.578125 62.738281 L 43 59.359375 L 43 52.921875 C 43 46.621094 42.980469 46.421875 42.421875 43.5 C 42.078125 41.839844 41.539062 39.019531 41.199219 37.199219 C 40.300781 32.378906 39.640625 29.578125 39.421875 29.621094 C 39.359375 29.621094 39.058594 29.921875 38.761719 30.28125 Z M 39.140625 40.121094 C 39.078125 40.179688 38.539062 40.179688 37.921875 40.101562 C 36.839844 39.960938 36.800781 39.921875 36.800781 39.378906 L 36.800781 38.800781 L 38.019531 39.421875 C 38.699219 39.738281 39.199219 40.078125 39.140625 40.121094 Z M 39.140625 40.121094 "/>
<path style=" stroke:none;fill-rule:nonzero;fill:rgb(0%,0%,0%);fill-opacity:1;" d="M 45.199219 53.738281 C 45.199219 60.121094 45.21875 60.519531 45.601562 61.320312 C 46.101562 62.339844 46.960938 62.800781 48.339844 62.800781 C 49.558594 62.800781 50.421875 62.300781 50.921875 61.28125 C 51.261719 60.558594 51.300781 59.921875 51.359375 53.738281 L 51.421875 47 L 49.398438 47 L 49.398438 53.78125 C 49.398438 61.238281 49.398438 61.199219 48.199219 61.199219 C 47.039062 61.199219 47 61 47 53.660156 L 47 47 L 45.199219 47 Z M 45.199219 53.738281 "/>
<path style=" stroke:none;fill-rule:nonzero;fill:rgb(0%,0%,0%);fill-opacity:1;" d="M 53.800781 54.78125 L 53.800781 62.601562 L 55.601562 62.601562 L 55.601562 56.398438 L 56.878906 56.398438 C 57.960938 56.398438 58.261719 56.320312 58.761719 55.898438 C 59.558594 55.238281 59.859375 53.980469 59.859375 51.519531 C 59.859375 49.238281 59.621094 48.28125 58.878906 47.578125 C 58.421875 47.140625 58.179688 47.101562 56.078125 47.039062 L 53.800781 46.960938 Z M 57.519531 48.679688 C 57.859375 48.941406 57.898438 49.21875 57.898438 51.601562 C 57.898438 54.121094 57.878906 54.261719 57.421875 54.621094 C 57.160156 54.820312 56.660156 55 56.28125 55 L 55.601562 55 L 55.601562 48.398438 L 56.359375 48.398438 C 56.78125 48.398438 57.300781 48.519531 57.519531 48.679688 Z M 57.519531 48.679688 "/>
<path style=" stroke:none;fill-rule:nonzero;fill:rgb(0%,0%,0%);fill-opacity:1;" d="M 61.800781 53.300781 L 61.800781 59.601562 L 63.601562 59.601562 L 63.601562 47 L 61.800781 47 Z M 61.800781 53.300781 "/>
<path style=" stroke:none;fill-rule:nonzero;fill:rgb(0%,0%,0%);fill-opacity:1;" d="M 61.800781 61.601562 L 61.800781 62.601562 L 63.601562 62.601562 L 63.601562 60.601562 L 61.800781 60.601562 Z M 61.800781 61.601562 "/>
<path style=" stroke:none;fill-rule:nonzero;fill:rgb(0%,0%,0%);fill-opacity:1;" d="M 45.238281 65.140625 C 45.199219 66.039062 45.261719 66.199219 45.558594 66.199219 C 45.78125 66.199219 45.820312 66.140625 45.660156 66.039062 C 45.539062 65.960938 45.398438 65.480469 45.339844 65 L 45.261719 64.101562 Z M 45.238281 65.140625 "/>
<path style=" stroke:none;fill-rule:nonzero;fill:rgb(0%,0%,0%);fill-opacity:1;" d="M 46.039062 65.140625 C 46.078125 65.859375 46.179688 66.121094 46.460938 66.160156 C 46.738281 66.21875 46.800781 66.078125 46.800781 65.21875 C 46.800781 64.320312 46.738281 64.199219 46.378906 64.199219 C 46.019531 64.199219 45.980469 64.300781 46.039062 65.140625 Z M 46.601562 65.199219 C 46.601562 65.640625 46.519531 66 46.398438 66 C 46.300781 66 46.199219 65.640625 46.199219 65.199219 C 46.199219 64.761719 46.300781 64.398438 46.398438 64.398438 C 46.519531 64.398438 46.601562 64.761719 46.601562 65.199219 Z M 46.601562 65.199219 "/>
<path style=" stroke:none;fill-rule:nonzero;fill:rgb(0%,0%,0%);fill-opacity:1;" d="M 47.199219 65.199219 C 47.199219 66.078125 47.261719 66.21875 47.558594 66.160156 C 47.820312 66.101562 47.898438 65.898438 47.898438 65.199219 C 47.898438 64.5 47.820312 64.300781 47.558594 64.238281 C 47.261719 64.179688 47.199219 64.320312 47.199219 65.199219 Z M 47.539062 65.640625 C 47.5 65.898438 47.460938 65.699219 47.460938 65.199219 C 47.460938 64.699219 47.5 64.5 47.539062 64.738281 C 47.578125 65 47.578125 65.398438 47.539062 65.640625 Z M 47.539062 65.640625 "/>
<path style=" stroke:none;fill-rule:nonzero;fill:rgb(0%,0%,0%);fill-opacity:1;" d="M 48.199219 65.199219 C 48.199219 65.738281 48.28125 66.199219 48.378906 66.199219 C 48.480469 66.199219 48.519531 66 48.460938 65.738281 L 48.378906 65.300781 L 48.640625 65.761719 C 48.898438 66.179688 48.921875 66.160156 48.921875 65.21875 C 48.921875 64.339844 48.898438 64.261719 48.640625 64.558594 C 48.378906 64.878906 48.378906 64.878906 48.480469 64.539062 C 48.539062 64.359375 48.5 64.199219 48.398438 64.199219 C 48.28125 64.199219 48.199219 64.640625 48.199219 65.199219 Z M 48.199219 65.199219 "/>
<path style=" stroke:none;fill-rule:nonzero;fill:rgb(0%,0%,0%);fill-opacity:1;" d="M 49.878906 64.480469 C 49.660156 65.058594 49.898438 66.101562 50.261719 66.160156 C 50.519531 66.21875 50.601562 66.101562 50.578125 65.660156 C 50.539062 65.121094 50.539062 65.121094 50.441406 65.601562 C 50.359375 66.039062 50.339844 66.058594 50.199219 65.71875 C 50.019531 65.179688 50.199219 64.28125 50.421875 64.640625 C 50.558594 64.839844 50.601562 64.820312 50.601562 64.539062 C 50.601562 64.140625 50.039062 64.078125 49.878906 64.480469 Z M 49.878906 64.480469 "/>
<path style=" stroke:none;fill-rule:nonzero;fill:rgb(0%,0%,0%);fill-opacity:1;" d="M 51 65.199219 C 51 66.078125 51.058594 66.21875 51.359375 66.160156 C 51.621094 66.101562 51.699219 65.898438 51.699219 65.199219 C 51.699219 64.5 51.621094 64.300781 51.359375 64.238281 C 51.058594 64.179688 51 64.320312 51 65.199219 Z M 51.601562 65.078125 C 51.601562 65.460938 51.519531 65.839844 51.398438 65.898438 C 51.28125 65.980469 51.199219 65.699219 51.199219 65.21875 C 51.199219 64.761719 51.300781 64.398438 51.398438 64.398438 C 51.519531 64.398438 51.601562 64.699219 51.601562 65.078125 Z M 51.601562 65.078125 "/>
<path style=" stroke:none;fill-rule:nonzero;fill:rgb(0%,0%,0%);fill-opacity:1;" d="M 52.078125 64.480469 C 51.859375 65.058594 52.101562 66.101562 52.460938 66.160156 C 52.738281 66.21875 52.800781 66.078125 52.800781 65.21875 C 52.800781 64.441406 52.71875 64.199219 52.5 64.199219 C 52.320312 64.199219 52.140625 64.320312 52.078125 64.480469 Z M 52.539062 65.640625 C 52.5 65.898438 52.460938 65.699219 52.460938 65.199219 C 52.460938 64.699219 52.5 64.5 52.539062 64.738281 C 52.578125 65 52.578125 65.398438 52.539062 65.640625 Z M 52.539062 65.640625 "/>
<path style=" stroke:none;fill-rule:nonzero;fill:rgb(0%,0%,0%);fill-opacity:1;" d="M 53.199219 65.199219 C 53.199219 66.078125 53.261719 66.21875 53.558594 66.160156 C 53.820312 66.101562 53.898438 65.898438 53.898438 65.199219 C 53.898438 64.5 53.820312 64.300781 53.558594 64.238281 C 53.261719 64.179688 53.199219 64.320312 53.199219 65.199219 Z M 53.800781 65.078125 C 53.800781 65.460938 53.71875 65.839844 53.601562 65.898438 C 53.480469 65.980469 53.398438 65.699219 53.398438 65.21875 C 53.398438 64.761719 53.5 64.398438 53.601562 64.398438 C 53.71875 64.398438 53.800781 64.699219 53.800781 65.078125 Z M 53.800781 65.078125 "/>
<path style=" stroke:none;fill-rule:nonzero;fill:rgb(0%,0%,0%);fill-opacity:1;" d="M 55.421875 65.238281 C 55.441406 65.820312 55.5 66.078125 55.539062 65.800781 C 55.601562 65.519531 55.738281 65.238281 55.878906 65.160156 C 56.039062 65.039062 56.039062 65 55.859375 65 C 55.71875 65 55.601562 64.878906 55.601562 64.71875 C 55.601562 64.558594 55.71875 64.378906 55.859375 64.339844 C 56 64.28125 55.960938 64.21875 55.761719 64.21875 C 55.460938 64.199219 55.398438 64.359375 55.421875 65.238281 Z M 55.421875 65.238281 "/>
<path style=" stroke:none;fill-rule:nonzero;fill:rgb(0%,0%,0%);fill-opacity:1;" d="M 56.199219 65.199219 C 56.199219 65.980469 56.261719 66.199219 56.519531 66.199219 C 56.800781 66.199219 56.800781 66.140625 56.601562 65.898438 C 56.398438 65.660156 56.398438 65.539062 56.601562 65.300781 C 56.78125 65.101562 56.78125 65 56.621094 65 C 56.320312 65 56.339844 64.460938 56.660156 64.339844 C 56.800781 64.28125 56.761719 64.21875 56.558594 64.21875 C 56.261719 64.199219 56.199219 64.378906 56.199219 65.199219 Z M 56.199219 65.199219 "/>
<path style=" stroke:none;fill-rule:nonzero;fill:rgb(0%,0%,0%);fill-opacity:1;" d="M 57.199219 65.199219 C 57.199219 66.019531 57.261719 66.199219 57.558594 66.199219 C 57.78125 66.199219 57.820312 66.140625 57.660156 66.039062 C 57.359375 65.859375 57.378906 64.558594 57.679688 64.359375 C 57.820312 64.261719 57.761719 64.199219 57.558594 64.199219 C 57.261719 64.199219 57.199219 64.378906 57.199219 65.199219 Z M 57.199219 65.199219 "/>
<path style=" stroke:none;fill-rule:nonzero;fill:rgb(0%,0%,0%);fill-opacity:1;" d="M 58.039062 65.140625 C 58 66.039062 58.058594 66.199219 58.359375 66.199219 C 58.578125 66.199219 58.621094 66.140625 58.460938 66.039062 C 58.339844 65.960938 58.199219 65.480469 58.140625 65 L 58.058594 64.101562 Z M 58.039062 65.140625 "/>
<path style=" stroke:none;fill-rule:nonzero;fill:rgb(0%,0%,0%);fill-opacity:1;" d="M 59.480469 64.480469 C 59.261719 65.058594 59.5 66.101562 59.859375 66.160156 C 60.101562 66.21875 60.199219 66.101562 60.199219 65.71875 C 60.199219 65.441406 60.121094 65.199219 60.019531 65.199219 C 59.921875 65.199219 59.878906 65.398438 59.960938 65.640625 C 60.019531 65.921875 60 66.019531 59.839844 65.921875 C 59.558594 65.761719 59.519531 64.398438 59.78125 64.398438 C 59.878906 64.398438 60.019531 64.519531 60.058594 64.640625 C 60.121094 64.800781 60.179688 64.761719 60.179688 64.539062 C 60.199219 64.140625 59.640625 64.078125 59.480469 64.480469 Z M 59.480469 64.480469 "/>
<path style=" stroke:none;fill-rule:nonzero;fill:rgb(0%,0%,0%);fill-opacity:1;" d="M 60.601562 65.199219 C 60.601562 66.078125 60.660156 66.21875 60.960938 66.160156 C 61.21875 66.101562 61.300781 65.898438 61.300781 65.199219 C 61.300781 64.5 61.21875 64.300781 60.960938 64.238281 C 60.660156 64.179688 60.601562 64.320312 60.601562 65.199219 Z M 60.941406 65.640625 C 60.898438 65.898438 60.859375 65.699219 60.859375 65.199219 C 60.859375 64.699219 60.898438 64.5 60.941406 64.738281 C 60.980469 65 60.980469 65.398438 60.941406 65.640625 Z M 60.941406 65.640625 "/>
<path style=" stroke:none;fill-rule:nonzero;fill:rgb(0%,0%,0%);fill-opacity:1;" d="M 61.679688 64.480469 C 61.460938 65.058594 61.699219 66.101562 62.058594 66.160156 C 62.339844 66.21875 62.398438 66.078125 62.398438 65.21875 C 62.398438 64.441406 62.320312 64.199219 62.101562 64.199219 C 61.921875 64.199219 61.738281 64.320312 61.679688 64.480469 Z M 62.199219 65.21875 C 62.199219 65.699219 62.121094 65.980469 62 65.898438 C 61.660156 65.699219 61.78125 64.398438 62.140625 64.398438 C 62.179688 64.398438 62.199219 64.761719 62.199219 65.21875 Z M 62.199219 65.21875 "/>
<path style=" stroke:none;fill-rule:nonzero;fill:rgb(0%,0%,0%);fill-opacity:1;" d="M 62.800781 65.199219 C 62.800781 66.078125 62.859375 66.21875 63.160156 66.160156 C 63.421875 66.101562 63.5 65.898438 63.5 65.199219 C 63.5 64.5 63.421875 64.300781 63.160156 64.238281 C 62.859375 64.179688 62.800781 64.320312 62.800781 65.199219 Z M 63.398438 65.199219 C 63.398438 65.519531 63.320312 65.839844 63.199219 65.898438 C 63.078125 65.980469 63 65.699219 63 65.199219 C 63 64.699219 63.078125 64.421875 63.199219 64.5 C 63.320312 64.558594 63.398438 64.878906 63.398438 65.199219 Z M 63.398438 65.199219 "/>
<path style=" stroke:none;fill-rule:nonzero;fill:rgb(0%,0%,0%);fill-opacity:1;" d="M 54.21875 66.320312 C 54.21875 66.539062 54.28125 66.601562 54.339844 66.441406 C 54.398438 66.300781 54.378906 66.121094 54.320312 66.058594 C 54.261719 65.980469 54.199219 66.101562 54.21875 66.320312 Z M 54.21875 66.320312 "/>
</g>
</svg>
